<svg width="34" height="34" viewBox="0 0 34 34" fill="none" xmlns="http://www.w3.org/2000/svg">
<rect x="0.75" y="0.75" width="32.5" height="32.5" rx="5.25" fill="#023D74" stroke="black" stroke-width="0.5"/>
<rect x="3.75" y="4.75" width="26.5" height="23.5" rx="5.25" fill="white" stroke="black" stroke-width="0.5"/>
<path d="M12.5 11.75C14.6259 11.75 16.25 13.9388 16.25 16.5C16.25 19.0612 14.6259 21.25 12.5 21.25C10.3741 21.25 8.75 19.0612 8.75 16.5C8.75 13.9388 10.3741 11.75 12.5 11.75Z" fill="black" stroke="white" stroke-width="0.5"/>
<ellipse cx="13" cy="14.5" rx="1" ry="1.5" fill="white"/>
<path d="M21.5 11.75C23.6259 11.75 25.25 13.9388 25.25 16.5C25.25 19.0612 23.6259 21.25 21.5 21.25C19.3741 21.25 17.75 19.0612 17.75 16.5C17.75 13.9388 19.3741 11.75 21.5 11.75Z" fill="black" stroke="white" stroke-width="0.5"/>
<ellipse cx="21" cy="14.5" rx="1" ry="1.5" fill="white"/>
</svg>
